# xmcd
#
# Track frame offsets:
#	150
#	29451
#	49115
#	72480
#	90753
#	109157
#	135321
#	153414
#	173517
#
# Disc length: 2539 seconds
#
# Revision: 1
# Processed by: cddbd v1.5.2PL0 Copyright (c) Steve Scherf et al.
# Submitted via: audiograbber 1.83.01
#
DISCID=6809e909
DTITLE=Ten Years After - Rock and roll music to the world
DYEAR=1900
DGENRE=
TTITLE0=You Give Me Loving
TTITLE1=Convention Prevention 
TTITLE2=Turned Off T.V. Blues
TTITLE3=Standing At The Station
TTITLE4=You Can't Win Them All
TTITLE5=Religion
TTITLE6=Choo Choo Moma
TTITLE7=Tomorrow I'll Be Out Of Town
TTITLE8=Rock and Roll Music To The World
EXTD=
EXTT0=
EXTT1=
EXTT2=
EXTT3=
EXTT4=
EXTT5=
EXTT6=
EXTT7=
EXTT8=
PLAYORDER=
